<svg width="40" height="40" viewBox="0 0 40 40" fill="none" xmlns="http://www.w3.org/2000/svg">
<path d="M20 40C31.0457 40 40 31.0457 40 20C40 8.9543 31.0457 0 20 0C8.9543 0 0 8.9543 0 20C0 31.0457 8.9543 40 20 40Z" fill="#121212"/>
<path d="M17.8164 29L14.3125 16.6602H14.207C14.2383 16.9805 14.2695 17.4141 14.3008 17.9609C14.3398 18.5078 14.375 19.0977 14.4062 19.7305C14.4375 20.3633 14.4531 20.9727 14.4531 21.5586V29H10.3516V11.8672H16.5156L20.0898 24.0312H20.1836L23.6875 11.8672H29.8633V29H25.6094V21.4883C25.6094 20.9492 25.6172 20.3711 25.6328 19.7539C25.6562 19.1289 25.6797 18.543 25.7031 17.9961C25.7344 17.4414 25.7617 17.0039 25.7852 16.6836H25.6797L22.2227 29H17.8164Z" fill="white"/>
</svg>
